<svg xmlns="http://www.w3.org/2000/svg" viewBox="0 0 24 24">
  <path fill="#464652" stroke-width="none" d="M18.4 4.2c-.8 0-1.4.6-1.4 1.4S17.6 7 18.4 7c.8 0 1.4-.6 1.4-1.4s-.6-1.4-1.4-1.4M12 16a4 4 0 0 1-4-4c0-2.2 1.8-4 4-4s4 1.8 4 4a4 4 0 0 1-4 4m0-10.2A6.2 6.2 0 0 0 5.8 12c0 3.4 2.8 6.2 6.2 6.2s6.2-2.8 6.2-6.2c0-3.4-2.8-6.2-6.2-6.2M12 0L7.1.1C2.7.3.3 2.7.1 7.1L0 12l.1 4.9c.2 4.4 2.6 6.8 7 7l4.9.1 4.9-.1c4.4-.2 6.8-2.6 7-7L24 12l-.1-4.9c-.2-4.4-2.6-6.8-7-7L12 0m0 2.2l4.8.1c3.3.1 4.8 1.7 4.9 4.9l.1 4.8-.1 4.8c-.1 3.2-1.7 4.8-4.9 4.9l-4.8.1-4.8-.1c-3.3-.1-4.8-1.7-4.9-4.9L2.2 12l.1-4.8C2.4 4 4 2.4 7.2 2.3l4.8-.1"/>
</svg>
