<svg xmlns="http://www.w3.org/2000/svg" viewBox="0 0 26 26">
  <path fill="#464652" stroke-width="none" d="M20.4 7.6c3.3.6 5.6 3.2 5.6 7.3V25c0 .6-.4 1-1 1h-5c-.6 0-1-.4-1-1v-8.4c0-1.8-.9-2.7-2-2.6-1.1 0-2 1-2 2.6V25c0 .6-.4 1-1 1H9c-.6 0-1-.4-1-1V9c0-.6.4-1 1-1h5c.5 0 .8.3 1 .7 1.5-1 3.5-1.4 5.4-1.1zM10 10v14h3v-7.4c0-2.7 1.7-4.6 4-4.6 2.3-.1 4 1.8 4 4.6V24h3v-9.1c0-3.1-1.5-4.9-3.9-5.3-2.1-.4-4.4.5-5.2 2-.5.9-1.9.6-1.9-.5V10h-3zM1 26c-.6 0-1-.4-1-1V9c0-.6.4-1 1-1h5c.6 0 1 .4 1 1v16c0 .6-.4 1-1 1H1zm1-2h3V10H2v14zM5 3.5C5 2.7 4.3 2 3.5 2S2 2.7 2 3.5 2.7 5 3.5 5 5 4.3 5 3.5zm2 0C7 5.4 5.4 7 3.5 7S0 5.4 0 3.5 1.6 0 3.5 0 7 1.6 7 3.5z"/>
</svg>
