<svg className="spinner" xmlns="http://www.w3.org/2000/svg" id="Layer_1" viewBox="0 0 131 131">
  <path fill="#3E3A34" d="M13.5 25.7l.7-.8c.2-.2.4-.2.6-.1l9.1 7.1 1-1.2c.2-.2.4-.2.6-.1l.7.6c.2.2.2.4.1.6l-3.2 4c-.2.2-.3.2-.6.1l-.7-.6c-.2-.2-.2-.4-.1-.6l1-1.3-7.9-6.2-.9 1.2c-.2.2-.4.2-.6.1l-.8-.6c-.2-.1-.2-.2 0-.4l1-1.8z"/>
  <path fill="#3E3A34" d="M30.1 25.6c.4-.3.5-.7.5-1.1-.1-.6-.5-1.1-.9-1.5l-.6-.7-2.1 1.8.6.7c.5.6 1 .9 1.3 1.1.4.1.8 0 1.2-.3m-6.8-7.9c-.4.3-.5.7-.5 1.1.1.4.4.9.8 1.5l2.2 2.6L28 21l-2.2-2.6c-.3-.5-.8-.8-1.3-1.1-.5 0-.9.1-1.2.4m-1.2-1.3c.8-.7 1.7-1 2.5-.9.9.1 1.7.7 2.5 1.6l4.1 4.8c1.6 1.8 1.7 3.6 0 5-1.6 1.4-3.4 1.1-5-.7l-4.1-4.8a4 4 0 0 1-1.2-2.7c0-.8.4-1.6 1.2-2.3"/>
  <path fill="#3E3A34" d="M38.9 19.3c.4-.2.7-.6.7-1s-.2-.9-.6-1.6l-.5-.8-2.4 1.4.5.8c.4.7.8 1.1 1.1 1.3.4.1.8.1 1.2-.1m-5.2-9.1c-.4.2-.7.6-.7 1s.2 1 .5 1.6l1.7 2.9 2.4-1.4-1.6-2.8c-.4-.7-.8-1.1-1.1-1.3-.4-.2-.8-.2-1.2 0m-.9-1.5c.9-.5 1.8-.7 2.6-.4s1.5 1 2.1 2l3.2 5.5c1.2 2.1.9 3.9-.9 5-1.9 1.1-3.5.4-4.8-1.7l-3.2-5.5c-.6-1.1-.8-2-.7-2.9.2-.8.8-1.5 1.7-2"/>
  <path fill="#3E3A34" d="M53.5 9.2c-.3.1-.5.3-.5.6s0 .8.2 1.4l.2.6c.4 1.3.7 1.7 1.3 1.5s.6-.7.3-2l-.2-.7-.5-1.3c-.2-.1-.5-.2-.8-.1zm-1.8 2.3c-.6-2.1-.1-3.4 1.4-3.8 1.5-.4 2.6.4 3.2 2.5l.2.8c.6 2.1.1 3.4-1.4 3.8-1.5.4-2.6-.4-3.2-2.5l-.2-.8zm-7-6.4c-.3.1-.5.3-.5.6s0 .8.2 1.4l.2.7c.4 1.2.7 1.6 1.3 1.5.6-.2.6-.7.3-2l-.2-.7-.5-1.3a.8.8 0 0 0-.8-.2zm-.3-1.5L50.2 2c.3-.1.4 0 .4.3l-.1 13.5c0 .2-.1.4-.3.5l-.9.2c-.3.1-.4 0-.4-.3L49 3.9l-2.3.6c.3.4.6 1 .8 1.7l.2.8c.6 2.1.1 3.4-1.4 3.8-1.5.4-2.6-.4-3.2-2.5l-.2-.8c-.6-2.1-.1-3.4 1.4-3.8l.1-.1z"/>
  <path fill="#3E3A34" d="M71.9 2.3l-.7 5.4.9.1c1 .1 1.5-.4 1.7-1.8l.2-1.4c.2-1.4-.2-2-1.2-2.2l-.9-.1zM73.1.7c2.1.3 3 1.6 2.7 4l-.2 1.6c-.2 1.7-1 2.8-2.2 3.1l1.2 4.8c.1.3-.1.5-.3.4l-1.3-.1c-.2 0-.3-.1-.3-.3l-1.1-4.7-.6-.1-.6 4.4c0 .3-.2.4-.5.3l-1.1-.1c-.3 0-.4-.2-.3-.5L70.1.7c0-.3.2-.4.4-.4l2.6.4z"/>
  <path fill="#3E3A34" d="M84.9 5.7l-3 5.9 1.8.6 1.2-6.5zm1.6-2c.2.1.3.2.3.4l-2 13c-.1.3-.2.4-.5.3l-1-.4a.5.5 0 0 1-.3-.5l.4-2.7-2.2-.8-1.3 2.4c-.1.2-.3.3-.6.2l-1-.3c-.3-.1-.3-.3-.2-.5l6.2-11.5c.1-.2.3-.3.5-.2l1.7.6z"/>
  <path fill="#3E3A34" d="M103.4 12.1c.2.1.3.3.1.5l-8.1 10.3c-.1.2-.3.2-.5.1l-1.3-.8c-.2-.1-.3-.3-.2-.5l3.7-9.1-6 7.8c-.1.2-.3.2-.5.1l-1.3-.8c-.3-.1-.3-.3-.3-.5l4.8-12.1c.1-.3.3-.3.5-.2l1 .6c.2.1.3.3.2.6L91.2 18l6.6-8.6c.2-.2.4-.3.6-.1l1 .6c.2.1.3.3.2.6l-4.1 10 6.4-8.7c.2-.2.4-.3.6-.1l.9.4z"/>
  <path fill="#3E3A34" d="M119 28.1c.2.2.1.4-.1.6l-10.1 7.9c-.2.2-.4.1-.6-.1l-.7-.9c-.2-.2-.1-.4.1-.6l3.5-2.7-1.6-2.1-3.5 2.7c-.2.2-.4.1-.6-.1l-.7-.9c-.2-.2-.1-.4.1-.6l10.1-7.9c.2-.2.4-.1.6.1l.7.8c.2.2.1.4-.1.6l-5.3 4.2 1.6 2.1 5.3-4.2c.2-.2.4-.1.6.1l.7 1z"/>
  <path fill="#3E3A34" d="M123.1 38.8c-.2-.5-.5-.7-.9-.8-.4 0-1 .1-1.7.4l-5.4 2.5c-1.4.6-1.9 1.3-1.4 2.2.4.9 1.2 1 2.6.4l5.4-2.5c.7-.3 1.2-.7 1.4-1 .2-.4.2-.8 0-1.2m-.5 3.8l-5.7 2.6c-2.3 1-4 .6-4.9-1.4s-.1-3.6 2.1-4.6l5.7-2.6c2.3-1 4-.6 4.9 1.4 1 2.1.2 3.6-2.1 4.6"/>
  <path fill="#3E3A34" d="M128.7 49.6c0 .2 0 .4-.2.5l-8.4 4.8 8.9-2.1c.3-.1.4 0 .5.3l.2 1c.1.3 0 .4-.3.5l-12.5 2.9c-.3.1-.4 0-.5-.3l-.3-1.2c0-.2 0-.4.2-.5l8.4-4.8-8.9 2.1c-.3.1-.4 0-.5-.3l-.2-1c-.1-.3 0-.4.3-.5l12.5-2.9c.3-.1.4 0 .5.3l.3 1.2z"/>
  <path fill="#3E3A34" d="M130.7 66.4c0 .3-.1.4-.4.4h-.9c-.3 0-.4-.1-.4-.4l-.1-2.7-5.4.1.1 2.2c0 .3-.1.4-.4.4h-.9c-.2 0-.4-.1-.4-.4l-.1-2.2-3.1.1.1 2.8c0 .3-.1.4-.4.4h-.9c-.3 0-.4-.1-.4-.4l-.1-4.3c0-.3.1-.4.4-.4l12.9-.3c.3 0 .4.1.4.4v4.3z"/>
  <path fill="#3E3A34" d="M129.2 79.7c0 .3-.2.4-.5.2l-8.6-4.1-3.6-.6c-.3 0-.4-.2-.3-.5l.2-1.1c0-.3.2-.4.5-.3l3.6.6 9.5-.9c.3 0 .4.1.4.4l-.2 1.1c0 .2-.2.4-.5.4l-7.2.4 6.6 2.8c.2.1.3.3.3.5l-.2 1.1z"/>
  <path fill="#3E3A34" d="M122.5 90.2l-1.9-.8c-.3-.1-.3-.3-.2-.5l.4-1c.1-.3.3-.3.5-.2l1.8.7c1.1.4 1.6.3 1.9-.3.3-.6 0-1.1-1.1-1.5-.5-.2-1.1-.3-1.7-.2l-1.7.4-1.7.6-1.7.4c-.6.1-1.2 0-1.7-.2-1.9-.8-2.5-2-1.8-3.8.8-1.9 2.2-2.5 4.4-1.6l.8.3c.2.1.3.3.2.5l-.4 1c-.1.3-.3.3-.5.2l-.5-.2c-1.4-.5-2-.5-2.3.3-.3.7 0 1.1.8 1.4 1.2.5 2.8-.5 4.5-1.1 1.3-.4 2.7-.4 4 .1 2 .8 2.8 2.2 2.1 4-.8 1.8-2.1 2.3-4.2 1.5"/>
  <path fill="#3E3A34" d="M111.3 101.3c-.1.2-.3.2-.5.1l-.8-.6c-.2-.1-.2-.3-.1-.5l1.6-2.2c.1-.2.3-.2.5-.1l.8.6c.2.1.2.3.1.5l-1.6 2.2z"/>
  <path fill="#3E3A34" d="M105.6 117.1l-.8.7c-.2.2-.4.1-.6-.1l-7.1-9.1-1.2 1c-.2.2-.4.1-.6-.1l-.6-.7c-.2-.2-.1-.4.1-.6l4-3.2c.2-.2.4-.1.6.1l.6.7c.2.2.1.4-.1.6l-1.3 1 6.2 7.9 1.2-.9c.2-.2.4-.1.6.1l.6.8c.1.2.1.2-.1.4l-1.5 1.4z"/>
  <path fill="#3E3A34" d="M94.2 122.4c.4-.2.7-.5.7-1 0-.4-.1-1-.5-1.6l-1.5-3-2.5 1.3 1.5 3c.4.7.7 1.1 1 1.3.4.3.8.2 1.3 0m-4.8-9.2c-.4.2-.7.6-.7 1s.1 1 .5 1.6l.4.8 2.5-1.3-.4-.8c-.4-.7-.7-1.1-1.1-1.3-.3-.3-.7-.3-1.2 0M95 124c-1 .5-1.8.6-2.6.2-.8-.3-1.5-1.1-2-2.1l-2.9-5.6c-1.1-2.2-.8-3.9 1.2-4.9 1.9-1 3.6-.3 4.7 1.9l2.9 5.6c.6 1.1.7 2 .6 2.9-.4.8-1 1.5-1.9 2"/>
  <path fill="#3E3A34" d="M82.1 127.1c.5-.1.8-.4.9-.8s.1-1-.1-1.7l-.9-3.2-2.7.8.9 3.2c.2.7.5 1.2.8 1.5.3.2.6.3 1.1.2m-2.8-10c-.5.1-.8.4-.9.8s-.1 1 .1 1.7l.2.9 2.7-.8-.3-.9c-.2-.7-.5-1.2-.8-1.5-.1-.3-.5-.4-1-.2m3.3 11.7c-1 .3-1.9.2-2.6-.3a4.2 4.2 0 0 1-1.6-2.5l-1.7-6.1c-.7-2.4 0-4 2.1-4.6s3.5.4 4.2 2.8l1.7 6.1c.3 1.2.3 2.2 0 2.9-.3.9-1 1.4-2.1 1.7"/>
  <path fill="#3E3A34" d="M70.1 129.3c.3 0 .5-.2.6-.4.1-.3.2-.7.1-1.4v-.7c0-1.3-.2-1.8-.9-1.8-.6 0-.8.5-.8 1.8v.7l.2 1.4c.3.3.5.4.8.4zm-.1 1.5l-6 .2c-.3 0-.4-.1-.3-.4l3.4-13c.1-.2.2-.4.4-.4h.9c.3 0 .4.1.3.4l-3.1 11.9 2.4-.1c-.2-.6-.3-1.3-.3-1.9v-.8c-.1-2.2.7-3.3 2.3-3.4 1.6 0 2.4 1 2.5 3.2v.8c.1 2.2-.7 3.3-2.3 3.4l-.2.1zm-7.4-7.7c.3 0 .5-.2.6-.4.1-.3.2-.7.1-1.4v-.7c0-1.3-.2-1.8-.9-1.8-.6 0-.8.5-.8 1.8v.7l.2 1.4c.3.3.5.5.8.4zm2.3-1.8c.1 2.2-.7 3.3-2.3 3.4-1.6 0-2.4-1-2.5-3.3v-.8c-.1-2.2.7-3.3 2.3-3.4 1.6 0 2.4 1 2.5 3.2v.9z"/>
  <path fill="#3E3A34" d="M42.7 126.9c-.2-.1-.3-.2-.3-.5l.8-9.6-3.4 8.5c-.1.3-.3.3-.5.2l-1-.4c-.3-.1-.3-.3-.2-.5l4.7-12c.1-.3.3-.3.5-.2l1.2.5c.2.1.3.2.3.5L44 123l3.4-8.5c.1-.3.3-.3.5-.2l.9.4c.3.1.3.3.2.5l-4.7 12c-.1.3-.3.3-.5.2l-1.1-.5z"/>
  <path fill="#3E3A34" d="M30.6 118.2l4.4-5-1.6-1-2.8 6zm-2 1.5c-.2-.1-.3-.3-.2-.5l5.1-12.1c.1-.3.3-.3.5-.2l.9.6c.2.1.3.3.2.6l-1.1 2.5 2 1.3 1.8-2c.2-.2.4-.2.6-.1l.9.6c.2.1.2.3.1.5l-8.8 9.7c-.2.2-.3.2-.5 0l-1.5-.9z"/>
  <path fill="#3E3A34" d="M18.3 111c-.2-.2-.2-.4 0-.6l.6-.7c.2-.2.4-.2.6 0l1.3 1.3 8-8.4c.2-.2.4-.2.6 0l.8.7c.2.2.2.4 0 .6l-8 8.4 1.3 1.3c.2.2.2.4 0 .6l-.6.7c-.2.2-.4.2-.6 0l-4-3.9z"/>
  <path fill="#3E3A34" d="M12.9 104.7c-.2-.2-.1-.4.1-.6l7.9-5.6c.6-.4 1-.8 1.1-1.2.1-.3 0-.7-.2-1-.3-.4-.6-.5-.9-.5s-.8.2-1.4.7l-7.8 5.6c-.2.2-.4.1-.6-.1l-.6-.9c-.1-.2-.1-.4.1-.5l8-5.7c2-1.4 3.5-1.2 4.8.5 1.2 1.7.9 3.3-1.1 4.7l-8 5.7c-.2.2-.4.1-.6-.1l-.8-1z"/>
  <path fill="#3E3A34" d="M7.4 91.9l4.9-2.2-.3-.8c-.4-.9-1.2-1.1-2.4-.5l-1.3.6c-1.3.5-1.7 1.2-1.3 2.1l.4.8zm-2-.2c-.9-2-.2-3.4 2-4.4l1.5-.7c1.6-.7 2.9-.6 3.8.3l3.5-3.5c.2-.2.4-.2.5 0l.5 1.2c.1.2 0 .3-.1.5l-3.4 3.4.2.5 4-1.8c.3-.1.4 0 .5.2l.4 1c.1.2 0 .4-.2.5L7 94.2c-.2.1-.4 0-.5-.2l-1.1-2.3z"/>
  <path fill="#3E3A34" d="M3.7 79l6.6-.6-.4-1.8L3.7 79zm-2.4-.3c-.1-.2 0-.4.2-.5l12.1-5.1c.3-.1.4 0 .5.2l.2 1.1c.1.2 0 .4-.3.5l-2.5 1 .5 2.3 2.7-.2c.3 0 .4.1.5.4l.2 1c.1.3 0 .4-.3.4L2 80.7c-.2 0-.4-.1-.4-.3l-.3-1.7z"/>
  <path fill="#3E3A34" d="M0 68c0-.3.1-.4.4-.4l11.5-.3-.1-2.7c0-.3.1-.4.4-.4h.9c.3 0 .4.1.4.4l.1 4.2c0 .3-.1.4-.4.4l-12.8.3c-.3 0-.4-.1-.4-.4V68z"/>
  <path fill="#3E3A34" d="M.9 53.9c0-.3.2-.4.5-.4l.9.1c.3 0 .4.2.4.5l-.3 2.7 5.4.7.3-2.2c0-.3.2-.4.5-.3l.9.1c.3 0 .4.2.3.4l-.3 2.2 3 .4.4-2.8c0-.3.2-.4.5-.3l.9.1c.3 0 .4.2.4.5l-.7 4.1c0 .3-.2.4-.5.3L.7 58.5c-.3 0-.4-.2-.3-.5l.5-4.1z"/>
  <path fill="#3E3A34" d="M12.9 40.3c.1-.2.2-.3.4-.2l.9.4c.2.1.3.2.2.4l-1.1 2.5c-.1.2-.2.3-.5.2l-.9-.4c-.2-.1-.3-.2-.2-.4l1.2-2.5z"/>
</svg>
